<svg width="12" height="16" viewBox="0 0 12 16" fill="none" xmlns="http://www.w3.org/2000/svg">
<path d="M6.375 0.21875C3.15625 0.21875 0 2.34375 0 5.8125C0 8 1.21875 9.25 1.96875 9.25C2.28125 9.25 2.46875 8.40625 2.46875 8.15625C2.46875 7.875 1.71875 7.25 1.71875 6.03125C1.71875 3.53125 3.625 1.75 6.09375 1.75C8.25 1.75 9.8125 2.96875 9.8125 5.1875C9.8125 6.84375 9.15625 9.9375 7 9.9375C6.21875 9.9375 5.53125 9.375 5.53125 8.59375C5.53125 7.40625 6.375 6.25 6.375 5.03125C6.375 2.96875 3.4375 3.34375 3.4375 5.84375C3.4375 6.375 3.5 6.9375 3.75 7.4375C3.3125 9.28125 2.4375 12.0625 2.4375 13.9688C2.4375 14.5625 2.5 15.125 2.5625 15.7188C2.65625 15.8438 2.625 15.8438 2.78125 15.7812C4.34375 13.625 4.3125 13.1875 5 10.375C5.40625 11.0938 6.375 11.5 7.1875 11.5C10.5 11.5 12 8.25 12 5.34375C12 2.25 9.3125 0.21875 6.375 0.21875Z" fill="white"/>
</svg>
